<svg width="48" height="48" viewBox="0 0 48 48" fill="none" xmlns="http://www.w3.org/2000/svg">
<mask id="mask0_700_39741" style="mask-type:alpha" maskUnits="userSpaceOnUse" x="0" y="0" width="48" height="48">
<rect width="48" height="48" fill="#D9D9D9"/>
</mask>
<g mask="url(#mask0_700_39741)">
<path d="M13.7654 34.2346L27.2076 27.2385L34.2038 13.7962L20.7615 20.7924L13.7654 34.2346ZM24 26C23.4333 26 22.9583 25.8083 22.575 25.425C22.1916 25.0417 22 24.5667 22 24C22 23.4333 22.1916 22.9583 22.575 22.575C22.9583 22.1917 23.4333 22 24 22C24.5666 22 25.0416 22.1917 25.425 22.575C25.8083 22.9583 26 23.4333 26 24C26 24.5667 25.8083 25.0417 25.425 25.425C25.0416 25.8083 24.5666 26 24 26ZM24.0033 43C21.3959 43 18.9393 42.5013 16.6335 41.504C14.3276 40.5066 12.3111 39.1448 10.584 37.4185C8.85687 35.6921 7.49442 33.6765 6.49665 31.3717C5.49888 29.0668 5 26.6107 5 24.0034C5 21.3755 5.49867 18.9054 6.496 16.5932C7.49333 14.2809 8.85517 12.2695 10.5815 10.5591C12.3079 8.8486 14.3235 7.49448 16.6283 6.49671C18.9332 5.49895 21.3893 5.00006 23.9966 5.00006C26.6245 5.00006 29.0945 5.49873 31.4068 6.49606C33.7191 7.4934 35.7305 8.8469 37.4409 10.5566C39.1514 12.2663 40.5055 14.2767 41.5033 16.588C42.501 18.8992 42.9999 21.3688 42.9999 23.9967C42.9999 26.604 42.5012 29.0606 41.5039 31.3665C40.5066 33.6724 39.1531 35.6889 37.4434 37.416C35.7337 39.1431 33.7232 40.5055 31.412 41.5033C29.1007 42.5011 26.6312 43 24.0033 43ZM24 40.7308C28.6564 40.7308 32.6089 39.1013 35.8577 35.8423C39.1064 32.5833 40.7307 28.6359 40.7307 24C40.7307 19.3436 39.1064 15.391 35.8577 12.1423C32.6089 8.89361 28.6564 7.26926 24 7.26926C19.364 7.26926 15.4166 8.89361 12.1577 12.1423C8.89868 15.391 7.2692 19.3436 7.2692 24C7.2692 28.6359 8.89868 32.5833 12.1577 35.8423C15.4166 39.1013 19.364 40.7308 24 40.7308Z" fill="#6750A4"/>
</g>
</svg>
