<svg width="48" height="48" viewBox="0 0 48 48" fill="none" xmlns="http://www.w3.org/2000/svg">
<mask id="mask0_700_39681" style="mask-type:alpha" maskUnits="userSpaceOnUse" x="0" y="0" width="48" height="48">
<rect width="48" height="48" fill="#D9D9D9"/>
</mask>
<g mask="url(#mask0_700_39681)">
<path d="M24.0103 30.7884C26.1649 30.7884 27.9999 30.0273 29.5153 28.505C31.0306 26.9826 31.7883 25.1442 31.7883 22.9896C31.7883 20.835 31.0272 19 29.5049 17.4847C27.9825 15.9693 26.1441 15.2116 23.9895 15.2116C21.8349 15.2116 19.9999 15.9728 18.4846 17.4951C16.9692 19.0174 16.2115 20.8558 16.2115 23.0104C16.2115 25.165 16.9727 27 18.495 28.5154C20.0173 30.0307 21.8557 30.7884 24.0103 30.7884ZM23.9848 28.5423C22.441 28.5423 21.1339 28.002 20.0634 26.9214C18.9929 25.8408 18.4576 24.5286 18.4576 22.9849C18.4576 21.4411 18.9979 20.134 20.0785 19.0635C21.1591 17.993 22.4713 17.4577 24.0151 17.4577C25.5588 17.4577 26.8659 17.998 27.9365 19.0786C29.007 20.1592 29.5422 21.4714 29.5422 23.0152C29.5422 24.5589 29.0019 25.866 27.9213 26.9366C26.8407 28.0071 25.5285 28.5423 23.9848 28.5423ZM24.0027 37C19.4162 37 15.2525 35.716 11.5115 33.1481C7.77047 30.5801 4.95894 27.1974 3.0769 23C4.95894 18.8026 7.76955 15.4199 11.5088 12.852C15.2479 10.284 19.4107 9.00006 23.9972 9.00006C28.5836 9.00006 32.7473 10.284 36.4883 12.852C40.2293 15.4199 43.0409 18.8026 44.9229 23C43.0409 27.1974 40.2303 30.5801 36.4911 33.1481C32.7519 35.716 28.5891 37 24.0027 37ZM23.9915 34.7308C27.9663 34.7308 31.6134 33.6679 34.9326 31.5423C38.2518 29.4167 40.7819 26.5692 42.523 23C40.7819 19.4308 38.2546 16.5833 34.941 14.4577C31.6274 12.3321 27.9832 11.2693 24.0084 11.2693C20.0335 11.2693 16.3864 12.3321 13.0672 14.4577C9.748 16.5833 7.20764 19.4308 5.4461 23C7.20764 26.5692 9.7452 29.4167 13.0588 31.5423C16.3724 33.6679 20.0166 34.7308 23.9915 34.7308Z" fill="#6750A4"/>
</g>
</svg>
