<svg width="152" height="102" viewBox="0 0 152 102" fill="none" xmlns="http://www.w3.org/2000/svg">
<g style="mix-blend-mode:luminosity">
<g clip-path="url(#clip0_327_39751)">
<path d="M30.8659 6.79638C37.6801 8.55437 43.0379 13.8646 44.8239 20.6066C42.4151 20.6157 40.4185 22.3374 39.9881 24.5938H30.7835C30.6553 23.9142 30.3897 23.2889 30.005 22.7361L33.3022 19.4648C33.6594 19.6279 34.044 19.7276 34.4653 19.7276C35.9674 19.7276 37.1855 18.5224 37.1855 17.0362C37.1855 15.5501 35.9674 14.3449 34.4653 14.3449C32.9633 14.3449 31.7452 15.5501 31.7452 17.0362C31.7452 17.444 31.8459 17.8337 32.0108 18.178L28.7045 21.4494C28.1458 21.0778 27.5138 20.806 26.8269 20.6791V11.572C29.1166 11.1461 30.8476 9.17058 30.8568 6.78731L30.8659 6.79638ZM11.8524 24.5938H21.0569C21.1851 23.9142 21.4507 23.2889 21.8354 22.7361L18.5383 19.4648C18.1811 19.6279 17.7964 19.7276 17.3751 19.7276C15.8731 19.7276 14.6549 18.5224 14.6549 17.0362C14.6549 16.6194 14.7557 16.2388 14.9205 15.8854C15.1861 15.3236 15.6441 14.8705 16.2119 14.6077C16.5691 14.4446 16.9538 14.3449 17.3751 14.3449C18.8771 14.3449 20.0952 15.5501 20.0952 17.0362C20.0952 17.444 19.9945 17.8337 19.8296 18.1871L23.136 21.4584C23.6855 21.0869 24.3266 20.815 25.0135 20.6882V11.581C22.7238 11.1551 20.9928 9.17964 20.9836 6.79638C14.1695 8.55437 8.81165 13.8646 7.02569 20.6066C9.43445 20.6157 11.4311 22.3374 11.8615 24.5938H11.8524ZM25.0043 39.419V30.3118C24.3174 30.185 23.6855 29.9222 23.1268 29.5416L19.8205 32.8129C19.9853 33.1572 20.0861 33.5469 20.0861 33.9638C20.0861 35.4499 18.868 36.6551 17.3659 36.6551C15.8639 36.6551 14.6458 35.4499 14.6458 33.9638C14.6458 32.4776 15.8639 31.2724 17.3659 31.2724C17.7781 31.2724 18.1719 31.3721 18.5291 31.5352L21.8354 28.2639C21.4599 27.7111 21.1851 27.0858 21.0569 26.4062H11.8524C11.4219 28.6716 9.42529 30.3843 7.01653 30.3934C8.79333 37.1354 14.1604 42.4456 20.9745 44.2036C20.9836 41.8204 22.7238 39.8449 25.0043 39.419ZM39.9881 26.4062H30.7835C30.6553 27.0858 30.3897 27.7111 30.005 28.2639L33.3022 31.5352C33.6594 31.3721 34.044 31.2724 34.4653 31.2724C35.9674 31.2724 37.1855 32.4776 37.1855 33.9638C37.1855 34.3806 37.0847 34.7612 36.9199 35.1146C36.6543 35.6764 36.1963 36.1295 35.6285 36.3923C35.2805 36.5554 34.8866 36.6551 34.4653 36.6551C32.9633 36.6551 31.7452 35.4499 31.7452 33.9638C31.7452 33.556 31.8459 33.1663 32.0108 32.8129L28.7045 29.5416C28.1458 29.9131 27.5138 30.185 26.8269 30.3118V39.419C29.1166 39.8449 30.8476 41.8204 30.8568 44.2036C37.6709 42.4456 43.0288 37.1354 44.8147 30.3934C42.406 30.3843 40.4094 28.6626 39.9789 26.4062H39.9881ZM51.693 25.5C51.6838 11.436 40.1255 0 25.9202 0C11.715 0 0.147461 11.436 0.147461 25.5C0.147461 39.564 11.7058 51 25.9202 51C40.1346 51 51.693 39.564 51.693 25.5ZM48.6248 25.5C48.6248 37.8875 38.4402 47.9643 25.9202 47.9643C13.4002 47.9643 3.21565 37.8785 3.21565 25.5C3.21565 13.1215 13.4002 3.03571 25.9202 3.03571C38.4402 3.03571 48.6248 13.1125 48.6248 25.5Z" fill="#74C30C"/>
<path d="M73.3435 47.6743C64.313 47.6743 56.6929 40.3886 56.6929 31.4536V15.3598C56.6929 8.70841 62.1973 3.32568 68.8557 3.32568H84.2241V9.02558H68.8557C65.7142 9.02558 63.0948 11.5629 63.0948 14.7255V32.0155C63.0948 37.4616 67.8299 41.9653 73.3435 41.9653H84.2241V47.6652H73.3435V47.6743Z" fill="black"/>
<path d="M89.0874 3.32568H95.4894L112.14 34.6796V3.32568H118.542V47.6743H112.14L95.4894 16.3204V47.6743H89.0874V3.32568Z" fill="black"/>
<path d="M123.689 47.6743V41.9744H137.775C141.933 41.9744 145.46 38.3678 145.46 34.0543C145.46 30.4387 142.831 27.2761 139.506 26.5783L131.053 24.8656C126.125 23.8507 122.407 19.8001 122.407 14.1002C122.407 8.08312 127.527 3.33472 133.544 3.33472H149.297V9.03461H133.929C131.044 9.03461 128.809 11.2548 128.809 14.1002C128.809 16.5741 130.476 18.5948 132.646 19.0389L140.972 20.7516C147.181 22.0202 151.852 27.5932 151.852 34.0543C151.852 41.6572 145.45 47.6743 138.407 47.6743H123.68H123.689Z" fill="black"/>
<path d="M5.67439 69.0283C3.44882 69.0283 1.64453 67.2521 1.64453 65.041V60.927C1.64453 59.3049 2.9634 58 4.60282 58H8.33043V59.1055H4.60282C3.6961 59.1055 2.9176 59.8758 2.9176 60.7729V65.186C2.9176 66.6812 4.17236 67.9318 5.67439 67.9318H8.33043V69.0373H5.67439V69.0283Z" fill="black"/>
<path d="M14.3477 68.3214C13.8715 68.7926 13.1571 69.0282 12.4976 69.0282H11.8932C10.6842 69.0282 9.73169 68.0858 9.73169 66.8987V61.1444H11.0048V67.0527C11.0048 67.5421 11.4077 67.9227 11.8932 67.9227H12.4976C13.4868 67.9227 14.3477 67.1705 14.3477 66.1919V61.1535H15.6208V69.6625C15.6208 71.3208 14.2195 72.6529 12.516 72.6529H10.6842V71.5474H12.5434C13.5326 71.5474 14.3385 70.7409 14.3385 69.7713V68.3214H14.3477Z" fill="black"/>
<path d="M17.416 58H18.6891V61.1535H21.1436C22.3526 61.1535 23.3143 62.0959 23.3143 63.283V65.9925C23.3143 67.678 21.9496 69.0373 20.2369 69.0373H17.416V58ZM22.032 63.1381C22.032 62.6487 21.6291 62.2591 21.1436 62.2591H18.6891V67.9318H20.2369C21.2261 67.9318 22.0412 67.1253 22.0412 66.1557V63.1471L22.032 63.1381Z" fill="black"/>
<path d="M30.4122 69.0282H27.8935C26.19 69.0282 24.8345 67.678 24.8345 65.9834V63.2739C24.8345 62.0959 25.8236 61.1444 27.0692 61.1444H28.498C29.7436 61.1444 30.7235 62.0868 30.7235 63.2739C30.7235 64.2617 29.9451 65.1497 28.9925 65.3672L26.1075 66.065V66.1465C26.1075 67.1252 26.9043 67.9227 27.8935 67.9227H30.4122V69.0282ZM26.1167 64.9051L28.7086 64.2707C29.1391 64.1801 29.4597 63.8177 29.4597 63.283C29.4597 62.7484 29.0109 62.259 28.5071 62.259H27.0784C26.5563 62.259 26.1259 62.7302 26.1259 63.283V64.9051H26.1167Z" fill="black"/>
<path d="M32.2622 61.1536H33.059L33.5353 61.8604C34.0115 61.3892 34.5702 61.1536 35.2846 61.1536H37.1988V62.2591H35.2846C34.3138 62.2591 33.5353 63.0475 33.5353 63.9899V69.0283H32.2622V61.1536Z" fill="black"/>
<path d="M38.646 58H39.9191V59.5768H38.646V58ZM38.646 61.1535H39.9191V69.0283H38.646V61.1535Z" fill="black"/>
<path d="M42.9596 69.0283H41.6865V61.1536H42.4833L42.9596 61.8604C43.4358 61.3892 44.0312 61.1536 44.7639 61.1536H45.4141C46.6231 61.1536 47.5756 62.096 47.5756 63.2831V69.0374H46.3025V63.1472C46.3025 62.6578 45.9087 62.2682 45.4141 62.2682H44.7639C43.7747 62.2682 42.9596 63.0747 42.9596 64.0443V69.0374V69.0283Z" fill="black"/>
<path d="M50.6346 60.1477V61.1535H52.7045V62.2591H50.6346V69.0373H49.3616V60.1477C49.3616 58.9515 50.3324 58 51.5871 58H52.7045V59.1055H51.5871C51.0559 59.1055 50.6346 59.5768 50.6346 60.1477Z" fill="black"/>
<path d="M54.1426 61.1536H54.9394L55.4156 61.8604C55.8919 61.3892 56.4506 61.1536 57.165 61.1536H59.07V62.2591H57.165C56.1941 62.2591 55.4156 63.0475 55.4156 63.9899V69.0283H54.1426V61.1536Z" fill="black"/>
<path d="M60.691 62.25V61.1444H63.7959C64.9865 61.1444 65.9482 62.0778 65.9482 63.2558V69.0191H62.2114C60.9658 69.0191 60.0591 68.0586 60.0591 66.8715C60.0591 65.9109 60.8376 65.0319 61.8084 64.7963L64.6751 64.1167V63.1108C64.6751 62.6215 64.2721 62.2409 63.805 62.2409H60.7002L60.691 62.25ZM62.2022 67.9227H64.6659V65.2404L62.074 65.8656C61.6436 65.9744 61.323 66.3731 61.323 66.8715C61.323 67.4243 61.6894 67.9136 62.2022 67.9136V67.9227Z" fill="black"/>
<path d="M69.2271 65.3583C68.238 65.1045 67.4778 64.3343 67.4778 63.2831C67.4778 62.1051 68.4669 61.1536 69.7034 61.1536H72.8906V62.2591H69.7034C69.1905 62.2591 68.7509 62.7303 68.7509 63.2831C68.7509 63.7906 69.0714 64.1621 69.4836 64.2708L71.6175 64.8236C72.6067 65.0773 73.3669 65.8748 73.3669 66.9078C73.3669 68.0859 72.3777 69.0374 71.1413 69.0374H67.6426V67.9318H71.1413C71.6542 67.9318 72.0938 67.4606 72.0938 66.9078C72.0938 66.3551 71.7732 66.0107 71.297 65.8838L69.2271 65.3673V65.3583Z" fill="black"/>
<path d="M78.0743 67.9227V69.0283H77.1218C75.8671 69.0283 74.8962 68.0949 74.8962 66.9168V58H76.1693V61.1535H78.0835V62.2591H76.1693V66.9259C76.1693 67.4787 76.5998 67.9318 77.1218 67.9318H78.0743V67.9227Z" fill="black"/>
<path d="M79.5215 61.1536H80.3183L80.7945 61.8604C81.2708 61.3892 81.8295 61.1536 82.5439 61.1536H84.458V62.2591H82.5439C81.573 62.2591 80.7945 63.0475 80.7945 63.9899V69.0283H79.5215V61.1536Z" fill="black"/>
<path d="M90.5213 61.1535H91.7944V69.0282H90.9975L90.5213 68.3214C90.045 68.7926 89.4589 69.0282 88.717 69.0282H88.0667C86.8578 69.0282 85.9053 68.0858 85.9053 66.8987V61.1444H87.1783V67.0346C87.1783 67.5239 87.5722 67.9136 88.0667 67.9136H88.717C89.7061 67.9136 90.5213 67.1071 90.5213 66.1375V61.1444V61.1535Z" fill="black"/>
<path d="M96.3554 69.0283C94.7526 69.0283 93.4429 67.7325 93.4429 66.1466V63.2831C93.4429 62.1051 94.3954 61.1536 95.6044 61.1536H98.8557V62.2591H95.6044C95.1098 62.2591 94.716 62.6488 94.716 63.1381V66.2916C94.716 67.1887 95.467 67.9318 96.3554 67.9318H98.8557V69.0374H96.3554V69.0283Z" fill="black"/>
<path d="M103.49 67.9227V69.0283H102.537C101.283 69.0283 100.312 68.0949 100.312 66.9168V58H101.585V61.1535H103.49V62.2591H101.585V66.9259C101.585 67.4787 102.015 67.9318 102.537 67.9318H103.49V67.9227Z" fill="black"/>
<path d="M109.553 61.1535H110.826V69.0282H110.029L109.553 68.3214C109.077 68.7926 108.481 69.0282 107.749 69.0282H107.098C105.89 69.0282 104.937 68.0858 104.937 66.8987V61.1444H106.21V67.0346C106.21 67.5239 106.613 67.9136 107.098 67.9136H107.749C108.738 67.9136 109.553 67.1071 109.553 66.1375V61.1444V61.1535Z" fill="black"/>
<path d="M112.612 61.1536H113.409L113.885 61.8604C114.361 61.3892 114.92 61.1536 115.634 61.1536H117.549V62.2591H115.634C114.664 62.2591 113.885 63.0475 113.885 63.9899V69.0283H112.612V61.1536Z" fill="black"/>
<path d="M124.408 69.0282H121.89C120.186 69.0282 118.831 67.678 118.831 65.9834V63.2739C118.831 62.0959 119.82 61.1444 121.056 61.1444H122.494C123.74 61.1444 124.72 62.0868 124.72 63.2739C124.72 64.2617 123.941 65.1497 122.989 65.3672L120.104 66.065V66.1465C120.104 67.1252 120.901 67.9227 121.89 67.9227H124.408V69.0282ZM120.104 64.9051L122.705 64.2707C123.135 64.1801 123.447 63.8177 123.447 63.283C123.447 62.7484 122.998 62.259 122.494 62.259H121.056C120.534 62.259 120.104 62.7302 120.104 63.283V64.9051Z" fill="black"/>
<path d="M131.094 60.1477V61.1535H133.164V62.2591H131.094V69.0373H129.821V60.1477C129.821 58.9515 130.792 58 132.047 58H133.164V59.1055H132.047C131.516 59.1055 131.094 59.5768 131.094 60.1477Z" fill="black"/>
<path d="M136.901 69.0283C135.527 69.0283 134.447 67.9409 134.447 66.5907V63.2831C134.447 62.1051 135.399 61.1536 136.599 61.1536H138.348C139.539 61.1536 140.5 62.096 140.5 63.2831V66.5907C140.5 67.9499 139.42 69.0283 138.046 69.0283H136.901ZM138.046 67.9228C138.696 67.9228 139.227 67.3881 139.227 66.7447V63.1381C139.227 62.6488 138.843 62.2591 138.348 62.2591H136.599C136.123 62.2591 135.72 62.6488 135.72 63.1381V66.7447C135.72 67.3881 136.242 67.9228 136.901 67.9228H138.046Z" fill="black"/>
<path d="M142.158 61.1536H142.955L143.431 61.8604C143.908 61.3892 144.466 61.1536 145.181 61.1536H147.095V62.2591H145.181C144.21 62.2591 143.431 63.0475 143.431 63.9899V69.0283H142.158V61.1536Z" fill="black"/>
<path d="M1.64453 73.653H2.9634L7.53361 82.162V73.653H8.80668V84.6812H7.50613L2.9176 76.1721V84.6812H1.64453V73.653Z" fill="black"/>
<path d="M16.0513 84.6812H13.5327C11.8291 84.6812 10.4736 83.3219 10.4736 81.6364V78.9269C10.4736 77.7489 11.4628 76.7974 12.6992 76.7974H14.128C15.3736 76.7974 16.3627 77.7398 16.3627 78.9269C16.3627 79.9146 15.5842 80.8027 14.6226 81.0202L11.7375 81.7089V81.7904C11.7375 82.7691 12.5344 83.5666 13.5235 83.5666H16.0422V84.6721L16.0513 84.6812ZM11.7559 80.558L14.3478 79.9237C14.7782 79.8331 15.0988 79.4706 15.0988 78.936C15.0988 78.4013 14.65 77.912 14.1463 77.912H12.7175C12.1955 77.912 11.765 78.3832 11.765 78.936V80.558H11.7559Z" fill="black"/>
<path d="M21.0795 83.5847V84.6902H20.1269C18.8722 84.6902 17.9014 83.7569 17.9014 82.5788V73.662H19.1744V76.8155H21.0886V77.921H19.1744V82.5879C19.1744 83.1407 19.6049 83.5938 20.1269 83.5938H21.0795V83.5847Z" fill="black"/>
<path d="M27.2434 76.8065H28.489L30.339 82.7148L32.1891 76.8065H33.5263L30.9801 84.6813H29.7071L27.857 79.0267L26.0436 84.6813H24.7705L22.2244 76.8065H23.5615L25.4116 82.7148L27.2617 76.8065H27.2434Z" fill="black"/>
<path d="M37.0339 84.6812C35.6692 84.6812 34.5793 83.5937 34.5793 82.2345V78.9269C34.5793 77.7489 35.5319 76.7974 36.7317 76.7974H38.481C39.6808 76.7974 40.6333 77.7398 40.6333 78.9269V82.2345C40.6333 83.5937 39.5526 84.6812 38.1787 84.6812H37.0339ZM38.1787 83.5756C38.829 83.5756 39.3602 83.041 39.3602 82.3976V78.791C39.3602 78.3016 38.9756 77.912 38.481 77.912H36.7317C36.2554 77.912 35.8524 78.3107 35.8524 78.791V82.3976C35.8524 83.041 36.3745 83.5756 37.0339 83.5756H38.1787Z" fill="black"/>
<path d="M42.291 76.8065H43.0878L43.5641 77.5133C44.0403 77.0421 44.599 76.8065 45.3134 76.8065H47.2276V77.9121H45.3134C44.3426 77.9121 43.5641 78.7004 43.5641 79.6429V84.6813H42.291V76.8065Z" fill="black"/>
<path d="M48.6748 73.653H49.9479V84.6812H48.6748V73.653ZM53.703 76.8065H55.3607L51.5415 80.7484L55.3607 84.6903H53.703L49.9479 80.7484L53.703 76.8065Z" fill="black"/>
<path d="M60.1416 84.6812V83.5757H63.4845C64.6935 83.5757 65.7101 82.5789 65.7101 81.3646C65.7101 80.3859 65.0049 79.4616 64.1165 79.2713L61.8909 78.8182C60.6637 78.5645 59.821 77.5314 59.821 76.2537C59.821 74.8038 61.0117 73.653 62.4771 73.653H66.3512V74.7585H62.6236C61.7993 74.7585 61.0941 75.4381 61.0941 76.2537C61.0941 76.8971 61.5704 77.5767 62.2115 77.7036L64.3638 78.1476C65.8933 78.4648 66.974 79.815 66.974 81.3736C66.974 83.2041 65.4812 84.6812 63.6311 84.6812H60.1416Z" fill="black"/>
<path d="M71.3519 84.6813C69.74 84.6813 68.4395 83.3854 68.4395 81.7996V78.936C68.4395 77.758 69.392 76.8065 70.6009 76.8065H73.8523V77.9121H70.6009C70.1063 77.9121 69.7125 78.3108 69.7125 78.7911V81.9446C69.7125 82.8417 70.4635 83.5848 71.3519 83.5848H73.8523V84.6903H71.3519V84.6813Z" fill="black"/>
<path d="M75.2993 73.653H76.5724V75.2297H75.2993V73.653ZM75.2993 76.8065H76.5724V84.6812H75.2993V76.8065Z" fill="black"/>
<path d="M83.771 84.6812H81.2524C79.5489 84.6812 78.1934 83.3219 78.1934 81.6364V78.9269C78.1934 77.7489 79.1825 76.7974 80.419 76.7974H81.8569C83.1025 76.7974 84.0825 77.7398 84.0825 78.9269C84.0825 79.9146 83.304 80.8027 82.3514 81.0202L79.4664 81.7089V81.7904C79.4664 82.7691 80.2632 83.5666 81.2524 83.5666H83.771V84.6721V84.6812ZM79.4756 80.558L82.0675 79.9237C82.498 79.8331 82.8186 79.4706 82.8186 78.936C82.8186 78.4013 82.3698 77.912 81.866 77.912H80.4281C79.906 77.912 79.4756 78.3832 79.4756 78.936V80.558Z" fill="black"/>
<path d="M86.8941 84.6813H85.6211V76.8065H86.4179L86.8941 77.5133C87.3704 77.0421 87.9566 76.8065 88.6984 76.8065H89.3487C90.5577 76.8065 91.5102 77.7489 91.5102 78.936V84.6903H90.2371V78.8001C90.2371 78.3108 89.8433 77.9211 89.3487 77.9211H88.6984C87.7093 77.9211 86.8941 78.7276 86.8941 79.6972V84.6903V84.6813Z" fill="black"/>
<path d="M96.0621 84.6813C94.4502 84.6813 93.1497 83.3854 93.1497 81.7996V78.936C93.1497 77.758 94.1022 76.8065 95.3203 76.8065H98.5716V77.9121H95.3203C94.8257 77.9121 94.4227 78.3108 94.4227 78.7911V81.9446C94.4227 82.8417 95.1737 83.5848 96.0621 83.5848H98.5625V84.6903H96.0621V84.6813Z" fill="black"/>
<path d="M105.413 84.6812H102.895C101.191 84.6812 99.8357 83.3219 99.8357 81.6364V78.9269C99.8357 77.7489 100.825 76.7974 102.061 76.7974H103.499C104.745 76.7974 105.725 77.7398 105.725 78.9269C105.725 79.9146 104.946 80.8027 103.994 81.0202L101.118 81.7089V81.7904C101.118 82.7691 101.915 83.5666 102.904 83.5666H105.423V84.6721L105.413 84.6812ZM101.118 80.558L103.71 79.9237C104.14 79.8331 104.461 79.4706 104.461 78.936C104.461 78.4013 104.012 77.912 103.508 77.912H102.07C101.548 77.912 101.118 78.3832 101.118 78.936V80.558Z" fill="black"/>
<path d="M114.691 84.6812C112.466 84.6812 110.661 82.9051 110.661 80.694V76.5799C110.661 74.9579 111.989 73.653 113.629 73.653H117.356V74.7585H113.629C112.722 74.7585 111.944 75.5288 111.944 76.4259V80.839C111.944 82.3342 113.198 83.5847 114.691 83.5847H117.356V84.6903H114.691V84.6812Z" fill="black"/>
<path d="M124.07 84.6812H121.551C119.847 84.6812 118.492 83.3219 118.492 81.6364V78.9269C118.492 77.7489 119.481 76.7974 120.718 76.7974H122.155C123.392 76.7974 124.381 77.7398 124.381 78.9269C124.381 79.9146 123.603 80.8027 122.65 81.0202L119.765 81.7089V81.7904C119.765 82.7691 120.562 83.5666 121.551 83.5666H124.07V84.6721V84.6812ZM119.765 80.558L122.357 79.9237C122.787 79.8331 123.108 79.4706 123.108 78.936C123.108 78.4013 122.659 77.912 122.155 77.912H120.718C120.195 77.912 119.765 78.3832 119.765 78.936V80.558Z" fill="black"/>
<path d="M127.184 84.6813H125.911V76.8065H126.707L127.184 77.5133C127.66 77.0421 128.246 76.8065 128.979 76.8065H129.629C130.838 76.8065 131.791 77.7489 131.791 78.936V84.6903H130.518V78.8001C130.518 78.3108 130.124 77.9211 129.629 77.9211H128.979C127.99 77.9211 127.184 78.7276 127.184 79.6972V84.6903V84.6813Z" fill="black"/>
<path d="M136.736 83.5847V84.6902H135.784C134.529 84.6902 133.558 83.7569 133.558 82.5788V73.662H134.831V76.8155H136.745V77.921H134.831V82.5879C134.831 83.1407 135.262 83.5938 135.784 83.5938H136.736V83.5847Z" fill="black"/>
<path d="M143.587 84.6812H141.068C139.365 84.6812 138.009 83.3219 138.009 81.6364V78.9269C138.009 77.7489 138.998 76.7974 140.244 76.7974H141.673C142.909 76.7974 143.898 77.7398 143.898 78.9269C143.898 79.9146 143.12 80.8027 142.158 81.0202L139.273 81.7089V81.7904C139.273 82.7691 140.07 83.5666 141.059 83.5666H143.578V84.6721L143.587 84.6812ZM139.282 80.558L141.874 79.9237C142.305 79.8331 142.625 79.4706 142.625 78.936C142.625 78.4013 142.177 77.912 141.673 77.912H140.244C139.713 77.912 139.292 78.3832 139.292 78.936V80.558H139.282Z" fill="black"/>
<path d="M145.428 76.8065H146.225L146.701 77.5133C147.177 77.0421 147.736 76.8065 148.45 76.8065H150.355V77.9121H148.45C147.48 77.9121 146.701 78.7004 146.701 79.6429V84.6813H145.428V76.8065Z" fill="black"/>
<path d="M47.7909 101.728C46.1698 101.728 44.7686 100.405 44.7686 98.8007V96.0549C44.7686 94.8225 45.8218 93.8529 47.0582 93.8529H50.3371V95.2666H47.0582C46.6736 95.2666 46.353 95.5384 46.353 95.9009V98.9457C46.353 99.6978 47.0216 100.314 47.7818 100.314H50.3279V101.737H47.7818L47.7909 101.728Z" fill="#74C30C"/>
<path d="M53.3685 101.728H51.7749V93.8439H52.8923L53.3685 94.3966C53.7624 94.0795 54.3119 93.8439 54.8797 93.8439H55.5941C56.8397 93.8439 57.8288 94.8226 57.8288 96.0459V101.719H56.2352V95.8828C56.2352 95.5203 55.9788 95.2485 55.5941 95.2485H54.8797C54.0188 95.2485 53.3685 95.8918 53.3685 96.7437V101.71V101.728Z" fill="#74C30C"/>
<path d="M61.2269 98.2116C60.2194 97.9579 59.4226 97.1605 59.4226 96.0549C59.4226 94.7953 60.3751 93.8529 61.7306 93.8529H64.9911V95.2666H61.8039C61.4101 95.2666 61.0071 95.6018 61.0071 96.0549C61.0071 96.4446 61.2452 96.7618 61.5658 96.8433L63.6723 97.378C64.6889 97.6408 65.4765 98.4201 65.4765 99.5166C65.4765 100.695 64.524 101.728 63.251 101.728H59.5875V100.305H63.0861C63.4983 100.305 63.8829 99.9787 63.8829 99.5166C63.8829 99.1178 63.6631 98.8188 63.3242 98.7282L61.2177 98.2116H61.2269Z" fill="#74C30C"/>
<path d="M67.0701 99.9878H68.8194V101.719H67.0701V99.9878Z" fill="#74C30C"/>
<path d="M70.7429 90.6903H72.3365V92.2671H70.7429V90.6903ZM70.7429 93.8438H72.3365V101.728H70.7429V93.8438Z" fill="#74C30C"/>
<path d="M78.7018 93.8439H80.2954V101.728H79.178L78.7018 101.175C78.2988 101.492 77.7584 101.728 77.1906 101.728H76.4762C75.2306 101.728 74.2415 100.749 74.2415 99.5166V93.8439H75.8351V99.6706C75.8351 100.033 76.0915 100.305 76.4762 100.305H77.1906C78.0515 100.305 78.7018 99.6616 78.7018 98.8098V93.8439Z" fill="#74C30C"/>
<path d="M82.2095 99.9878H83.9588V101.719H82.2095V99.9878Z" fill="#74C30C"/>
<path d="M91.4508 101.728H88.8497C87.1279 101.728 85.7083 100.341 85.7083 98.6557V96.0549C85.7083 94.8225 86.7707 93.8529 88.0529 93.8529H89.5366C90.8921 93.8529 91.7713 94.7953 91.7713 96.0549C91.7713 97.233 90.8463 97.9489 89.8572 98.2116L87.311 98.8913C87.3477 99.7069 88.0163 100.305 88.8589 100.305H91.46V101.728H91.4508ZM87.311 97.378L89.5366 96.8433C89.8755 96.7618 90.1777 96.4174 90.1777 96.0549C90.1777 95.6018 89.7931 95.2666 89.3809 95.2666H88.062C87.6499 95.2666 87.311 95.6018 87.311 96.0549V97.378Z" fill="#74C30C"/>
<path d="M99.2632 101.728H96.3324C94.6105 101.728 93.2092 100.341 93.2092 98.6556V96.0549C93.2092 94.8225 94.1984 93.8529 95.444 93.8529H97.6695V90.6993H99.2632V101.728ZM94.8028 98.8006C94.8028 99.6524 95.4714 100.314 96.3324 100.314H97.6695V95.2756H95.444C95.0593 95.2756 94.8028 95.5474 94.8028 95.9099V98.8097V98.8006Z" fill="#74C30C"/>
<path d="M105.638 93.8439H107.231V101.728H106.114L105.638 101.175C105.244 101.492 104.694 101.728 104.126 101.728H103.412C102.167 101.728 101.187 100.749 101.187 99.5166V93.8439H102.78V99.6706C102.78 100.033 103.037 100.305 103.412 100.305H104.126C104.987 100.305 105.638 99.6616 105.638 98.8098V93.8439Z" fill="#74C30C"/>
</g>
</g>
<defs>
<clipPath id="clip0_327_39751">
<rect width="151.705" height="101.737" fill="white" transform="translate(0.147461)"/>
</clipPath>
</defs>
</svg>
