<svg width="48" height="48" viewBox="0 0 48 48" fill="none" xmlns="http://www.w3.org/2000/svg">
<mask id="mask0_700_39710" style="mask-type:alpha" maskUnits="userSpaceOnUse" x="0" y="0" width="48" height="48">
<rect width="48" height="48" fill="#D9D9D9"/>
</mask>
<g mask="url(#mask0_700_39710)">
<path d="M23.9991 33.4615C24.3958 33.4615 24.722 33.3339 24.9778 33.0788C25.2336 32.8236 25.3615 32.4976 25.3615 32.1009C25.3615 31.7041 25.2339 31.3779 24.9787 31.1221C24.7235 30.8664 24.3976 30.7385 24.0009 30.7385C23.6041 30.7385 23.2779 30.8661 23.0221 31.1213C22.7663 31.3764 22.6385 31.7024 22.6385 32.0991C22.6385 32.4958 22.766 32.8221 23.0212 33.0779C23.2764 33.3336 23.6023 33.4615 23.9991 33.4615ZM22.9769 26.4077H25.2461V13.9308H22.9769V26.4077ZM24.0166 43C21.3848 43 18.9198 42.5013 16.6218 41.504C14.3237 40.5066 12.3111 39.1448 10.584 37.4185C8.85687 35.6921 7.49442 33.6791 6.49665 31.3796C5.49888 29.0801 5 26.613 5 23.9784C5 21.3565 5.49867 18.8921 6.496 16.5852C7.49333 14.2782 8.85517 12.2695 10.5815 10.5591C12.3079 8.8486 14.3208 7.49448 16.6203 6.49671C18.9199 5.49895 21.387 5.00006 24.0216 5.00006C26.6434 5.00006 29.1078 5.49873 31.4148 6.49606C33.7218 7.4934 35.7305 8.8469 37.4409 10.5566C39.1514 12.2663 40.5055 14.2767 41.5033 16.588C42.501 18.8992 42.9999 21.3644 42.9999 23.9834C42.9999 26.6152 42.5012 29.0801 41.5039 31.3782C40.5066 33.6763 39.1531 35.6858 37.4434 37.4068C35.7337 39.1277 33.7232 40.4902 31.412 41.4941C29.1007 42.498 26.6356 43 24.0166 43ZM24.025 40.7308C28.6647 40.7308 32.6089 39.1013 35.8577 35.8423C39.1064 32.5833 40.7307 28.6276 40.7307 23.975C40.7307 19.3353 39.1095 15.391 35.867 12.1423C32.6245 8.89361 28.6688 7.26926 24 7.26926C19.364 7.26926 15.4166 8.8905 12.1577 12.133C8.89868 15.3754 7.2692 19.3311 7.2692 24C7.2692 28.6359 8.89868 32.5833 12.1577 35.8423C15.4166 39.1013 19.3724 40.7308 24.025 40.7308Z" fill="#6750A4"/>
</g>
</svg>
